<?xml version="1.0" encoding="UTF-8" standalone="no"?>
<!-- Created with Inkscape (http://www.inkscape.org/) -->

<svg
   width="300.0px"
   height="300.0px"
   viewBox="0 0 300.0 300.0"
   version="1.1"
   id="SVGRoot"
   sodipodi:docname="bitvoker.svg"
   inkscape:version="1.2.2 (b0a8486541, 2022-12-01)"
   inkscape:export-filename="bitvoker.png"
   inkscape:export-xdpi="96"
   inkscape:export-ydpi="96"
   xmlns:inkscape="http://www.inkscape.org/namespaces/inkscape"
   xmlns:sodipodi="http://sodipodi.sourceforge.net/DTD/sodipodi-0.dtd"
   xmlns="http://www.w3.org/2000/svg"
   xmlns:svg="http://www.w3.org/2000/svg">
  <sodipodi:namedview
     id="namedview3555"
     pagecolor="#505050"
     bordercolor="#eeeeee"
     borderopacity="1"
     inkscape:showpageshadow="0"
     inkscape:pageopacity="0"
     inkscape:pagecheckerboard="0"
     inkscape:deskcolor="#505050"
     inkscape:document-units="px"
     showgrid="true"
     inkscape:zoom="2.6532575"
     inkscape:cx="37.501072"
     inkscape:cy="113.44545"
     inkscape:window-width="2560"
     inkscape:window-height="1371"
     inkscape:window-x="0"
     inkscape:window-y="0"
     inkscape:window-maximized="1"
     inkscape:current-layer="layer1">
    <inkscape:grid
       type="xygrid"
       id="grid4041" />
  </sodipodi:namedview>
  <defs
     id="defs3550" />
  <g
     inkscape:label="Layer 1"
     inkscape:groupmode="layer"
     id="layer1"
     style="display:inline">
    <rect
       style="fill:#212121;fill-opacity:1;stroke-width:1.09188"
       id="rect4498"
       width="298.44504"
       height="298.44504"
       x="0.72876114"
       y="0.61392576"
       ry="55.683319"
       rx="55.683319" />
    <path
       style="fill:#b66efd;stroke-width:0.708616"
       d="m 178.80846,102.94312 c -9.39815,-1.86266 -16.2486,-12.46139 -14.21054,-21.984923 4.77113,-22.297693 37.01264,-19.08261 37.05912,3.695023 0.0244,12.18064 -10.63248,20.7117 -22.84858,18.2899 z"
       id="path27228" />
    <path
       style="fill:#3d9de3;stroke-width:0.727239"
       d="m 118.74426,104.16096 c -20.847571,-7.46766 -15.8527,-38.088172 6.24142,-38.259991 13.194,-0.103388 22.47694,12.350716 18.96034,25.436761 -2.7023,10.05881 -15.18585,16.41035 -25.20176,12.82323 z"
       id="path27230" />
    <path
       style="fill:#fd7900;stroke-width:0.690417"
       d="m 237.24518,103.57511 c -14.15532,-3.38343 -19.60872,-19.784456 -10.15711,-30.545676 11.43095,-13.015871 32.49491,-5.156963 32.49491,12.12356 0,12.054846 -11.00563,21.131046 -22.3378,18.422116 z"
       id="path27232" />
    <path
       style="fill:#ffffff;stroke-width:0.236569"
       d="m 77.537467,233.45493 c -3.51703,-0.44835 -8.366266,-0.97473 -10.776086,-1.16974 -2.409811,-0.195 -4.745784,-0.46088 -5.19105,-0.59082 -3.018873,-0.881 -4.292339,-3.53055 -5.002108,-10.40733 -0.476548,-4.61728 -0.629373,-21.95761 -0.520633,-59.07498 0.106142,-36.22939 -0.122861,-58.61648 -0.657449,-64.273591 -0.305134,-3.228918 -0.85236,-5.953803 -1.450737,-7.223924 -0.83181,-1.76558 -1.122455,-1.857509 -6.297827,-1.991764 l -4.554336,-0.118154 -0.656086,-0.656869 -0.656076,-0.656896 0.02192,-4.069111 c 0.0339,-6.303621 0.615371,-9.133293 2.012452,-9.794132 0.337338,-0.159559 2.948471,-0.659089 5.802517,-1.110047 2.854036,-0.450968 10.517994,-1.67134 17.031007,-2.711943 15.199189,-2.428417 15.529728,-2.471315 19.183805,-2.489203 2.683439,-0.01308 3.185349,0.04661 3.907819,0.465549 1.79918,1.043229 2.00056,2.585785 1.05362,8.070759 -0.77576,4.493485 -1.3587,9.720294 -2.1034,18.85939 -1.219677,14.968036 -1.970934,27.378426 -2.191738,36.206066 -0.135057,5.3989 -0.112397,5.97369 0.240728,6.10889 0.47979,0.18369 1.79202,-0.54294 7.54822,-4.17973 5.874331,-3.71144 8.213351,-5.03232 10.491291,-5.92458 1.65367,-0.64775 2.25772,-0.75583 4.74098,-0.8483 7.05551,-0.26274 15.70238,2.11867 21.84466,6.01616 10.8302,6.87214 17.73166,18.41531 20.10652,33.62963 0.65778,4.21389 0.59707,13.84319 -0.11604,18.40614 -3.45315,22.09563 -16.20921,39.17055 -34.77213,46.54502 -6.61389,2.6275 -12.80942,3.53358 -25.303271,3.70058 -7.260904,0.097 -7.412541,0.0892 -13.736556,-0.71707 z M 98.648269,212.7608 c 6.289591,-0.87282 11.434281,-4.41254 15.598351,-10.73221 7.60638,-11.54389 9.08235,-29.11886 3.39321,-40.40424 -3.08672,-6.12301 -7.62758,-9.88595 -13.97488,-11.58074 -10.438171,-2.7871 -14.873931,0.23697 -16.766098,11.43025 -0.90388,5.34699 -1.008217,7.68376 -1.122234,25.13437 -0.160388,24.54764 -0.188464,24.38691 4.444981,25.44711 3.98562,0.91198 5.82739,1.06616 8.42667,0.70546 z"
       id="path27429" />
    <path
       style="fill:#ffffff;stroke-width:0.236891"
       d="m 186.16271,235.02454 c -0.42237,-0.18505 -1.21346,-2.73647 -5.30001,-17.09376 -10.82484,-38.03081 -13.59881,-47.65298 -15.26538,-52.95161 -3.76483,-11.96976 -6.21401,-17.48776 -8.55088,-19.26521 -1.23598,-0.94009 -2.41451,-1.32283 -4.50041,-1.4615 -1.06955,-0.0711 -2.2307,-0.23686 -2.58035,-0.36831 -1.49434,-0.56182 -1.72722,-3.04628 -0.89415,-9.53947 0.68168,-5.31317 1.13197,-6.04064 4.02071,-6.49555 0.88692,-0.13967 6.17747,-0.24485 12.45417,-0.2476 11.48706,-0.005 23.15865,-0.29895 28.6704,-0.72201 1.8082,-0.13877 4.38069,-0.25683 5.71662,-0.26233 4.8129,-0.0198 4.97001,0.46095 3.32236,10.16665 -0.67209,3.95917 -1.18277,5.29284 -2.23425,5.83506 -0.40854,0.21068 -2.06792,0.63687 -3.68749,0.94709 -4.64798,0.89028 -5.33737,1.42069 -5.33737,4.10645 0,2.27253 1.11068,7.47791 5.25755,24.64008 4.37737,18.11618 7.23689,29.09684 7.57721,29.09684 0.64347,0 4.34365,-9.72585 9.92705,-26.0931 5.75337,-16.86545 8.35496,-25.53079 8.34098,-27.78252 -0.0175,-2.87316 -0.54255,-3.13309 -6.78751,-3.36134 -5.03635,-0.18409 -5.74654,-0.37696 -6.31228,-1.71438 -0.54469,-1.28763 -0.11248,-7.44926 0.74539,-10.62621 0.5845,-2.16459 2.04326,-2.99923 6.15995,-3.5244 2.67472,-0.34124 31.50048,-0.71327 35.58328,-0.45926 5.04348,0.31378 6.16783,0.89317 6.16783,3.17829 0,1.24115 -1.39762,9.45483 -1.80445,10.60473 -0.51403,1.45288 -1.09352,1.92741 -3.68558,3.01814 -3.2105,1.35095 -3.81892,2.08607 -6.44841,7.79184 -2.30846,5.00902 -7.86881,19.67858 -18.42648,48.61337 -8.69695,23.83533 -10.02051,26.99947 -12.36284,29.5552 -1.53294,1.67261 -2.92576,2.25152 -6.12845,2.54723 -1.37632,0.12708 -5.93501,0.59291 -10.13042,1.03514 -8.49435,0.89542 -12.76265,1.15849 -13.50679,0.83245 z"
       id="path27431" />
    <path
       style="fill:#212121;fill-opacity:1;stroke-width:0.376895"
       d="M 49.261604,298.43911 C 45.22647,297.92792 39.92813,296.49825 35.530739,294.73407 28.120078,291.761 22.385929,287.8713 16.628325,281.91182 9.0252454,274.04215 4.4385699,265.40604 1.9963774,254.36176 l -0.8656918,-3.9149 V 149.81584 49.184823 L 1.974627,45.376651 C 4.9051014,32.153285 11.409855,21.418165 21.468756,13.204515 28.576699,7.400486 37.296972,3.4115528 46.735004,1.6469204 50.356213,0.96986176 54.419173,0.94223798 150.38118,0.94223798 h 99.87723 l 3.9574,0.86905692 c 7.93068,1.741601 14.1329,4.3701326 20.74067,8.7900011 4.0077,2.680707 10.18101,8.602602 13.08799,12.554977 5.82739,7.922988 9.5578,17.514518 10.60537,27.268241 0.57113,5.317727 0.58847,193.383256 0.0183,198.623836 -1.42151,13.06578 -6.74445,24.20513 -15.98393,33.44973 -7.88182,7.88619 -16.68993,12.67644 -28.27996,15.37993 l -3.39206,0.79123 -99.50033,0.0591 c -59.056298,0.0351 -100.618103,-0.0825 -102.250266,-0.28925 z M 201.12282,234.24428 c 5.25888,-0.51607 10.29815,-1.11609 11.19839,-1.33337 4.74711,-1.14575 5.48692,-2.62483 16.96138,-33.91025 14.47251,-39.45968 17.86239,-48.01868 20.49309,-51.74241 0.40799,-0.57751 2.04854,-1.70702 3.64566,-2.51004 1.94445,-0.97765 3.05123,-1.78347 3.34989,-2.43897 0.58447,-1.28276 1.96732,-9.2807 1.96732,-11.37829 0,-1.36574 -0.16997,-1.74977 -1.021,-2.30678 -0.94539,-0.61877 -2.51534,-0.66812 -21.20035,-0.66647 -18.02573,0.002 -20.40357,0.0711 -22.28017,0.65082 -3.47473,1.07348 -4.08321,2.36891 -4.38485,9.33512 -0.26639,6.15254 -0.41841,5.99608 6.22039,6.40252 5.34672,0.32733 6.34774,0.65181 6.73372,2.18272 0.38141,1.51283 -1.278,7.6144 -5.71154,21.00103 -6.51707,19.67764 -11.70545,33.69677 -12.25205,33.10534 -0.82356,-0.89112 -11.01772,-42.54797 -12.25192,-50.06562 -0.85569,-5.21205 -0.57513,-5.57412 5.40786,-6.97876 2.66167,-0.62489 3.61216,-1.01879 4.04226,-1.6752 0.63383,-0.96735 1.86468,-6.95776 2.24949,-10.94797 0.21904,-2.27144 0.15447,-2.76549 -0.4608,-3.52531 -0.67224,-0.83019 -0.95402,-0.88134 -4.65671,-0.84526 -2.16764,0.0211 -7.41803,0.20453 -11.66752,0.40757 -4.24949,0.20304 -13.32325,0.38303 -20.16389,0.39998 -14.00683,0.0347 -15.78233,0.20133 -16.97967,1.59331 -0.99983,1.16237 -1.79776,5.75643 -1.83759,10.5799 -0.0253,3.06195 0.0442,3.38839 0.86226,4.05162 0.51063,0.41398 1.47423,0.72225 2.26137,0.72345 3.99409,0.006 6.19283,1.69757 8.52365,6.55709 2.6429,5.51017 5.2632,13.88581 15.23174,48.68743 5.17072,18.05175 9.66114,33.44321 9.9787,34.20324 l 0.57739,1.38188 h 2.80095 c 1.54053,0 7.10367,-0.42224 12.36255,-0.93832 z M 99.500331,234.03332 c 9.105709,-0.61822 14.924209,-2.06894 21.480029,-5.35558 15.17915,-7.60978 25.70528,-22.00204 29.83309,-40.79049 1.14224,-5.19909 1.61203,-16.22862 0.91526,-21.48802 -0.8392,-6.33448 -2.89646,-13.15157 -5.55154,-18.39603 -2.83181,-5.59355 -8.42171,-12.04994 -13.24408,-15.29706 -9.29632,-6.25963 -22.60572,-8.78379 -29.55059,-5.60433 -1.10719,0.50689 -5.110508,2.83044 -8.896254,5.16345 -3.966159,2.44419 -7.117455,4.15193 -7.435988,4.02969 -0.659306,-0.25299 -0.657128,-0.10908 -0.166965,-11.04074 0.752905,-16.79121 2.461691,-38.186615 3.772672,-47.236905 1.029946,-7.110173 0.991254,-8.829614 -0.226073,-10.04694 -0.9634,-0.963401 -0.987401,-0.966514 -6.124547,-0.794657 -3.931522,0.131525 -8.86399,0.77202 -20.752011,2.69471 -21.645272,3.500764 -20.059391,3.126504 -20.946618,4.943278 -0.599749,1.228102 -0.765666,2.540496 -0.895013,7.0794 -0.20526,7.202727 -0.311285,7.05417 5.034604,7.05417 5.08458,0 6.112339,0.230369 6.778969,1.519487 1.983309,3.8353 2.111706,7.643868 2.432825,72.163527 0.319535,64.20154 0.264407,62.58638 2.270529,66.51871 1.168172,2.28981 2.673876,2.79885 10.554743,3.56832 3.627616,0.35419 8.291694,0.86459 10.364618,1.13422 4.694633,0.61064 12.949708,0.68438 20.35234,0.18179 z M 130.24311,104.5521 c 12.39166,-3.64198 18.07995,-16.37788 12.44051,-27.853928 -3.40436,-6.927752 -9.62528,-10.81555 -17.36597,-10.852938 -5.97052,-0.02883 -10.7714,1.876998 -14.45412,5.73795 -7.35623,7.712241 -7.33388,20.647645 0.0481,27.862237 2.20377,2.153779 5.75275,4.305179 8.54418,5.179479 2.21531,0.69386 8.31891,0.65267 10.78727,-0.0728 z m 113.58683,-0.54529 c 6.85595,-0.99088 13.12579,-6.480351 15.11846,-13.236758 0.98548,-3.34141 0.9072,-8.765011 -0.17004,-11.780391 -1.17008,-3.275276 -2.32609,-5.045474 -4.89429,-7.49467 -5.66978,-5.407059 -13.90175,-6.61502 -21.03952,-3.087345 -6.28971,3.108541 -10.66483,9.951827 -10.66483,16.681227 0,9.496654 7.09227,17.521447 16.73494,18.935327 1.05675,0.15495 2.00617,0.29953 2.10982,0.32128 0.10364,0.0218 1.3661,-0.13065 2.80546,-0.33867 z m -54.7679,-1.47568 c 4.51882,-1.39573 8.58598,-4.904921 10.72024,-9.24957 1.62422,-3.306377 2.19096,-6.312391 1.91857,-10.17617 -0.50922,-7.223042 -4.00818,-12.517409 -10.24824,-15.506878 -9.20732,-4.411008 -20.41643,-0.997686 -24.93186,7.592079 -4.1346,7.865317 -2.78646,16.732884 3.50303,23.041571 4.94361,4.958708 11.85182,6.518628 19.03826,4.298968 z"
       id="path5559"
       inkscape:label="path5559" />
    <path
       style="fill:#212121;fill-opacity:1;stroke-width:0.376895"
       d="m 92.339323,212.313 c -5.668639,-1.26674 -5.816921,-1.48415 -6.237208,-9.14474 -0.436596,-7.95786 0.211275,-37.52289 0.901905,-41.15763 1.283502,-6.755 2.90651,-9.95239 5.900645,-11.62451 1.484048,-0.82879 2.119991,-0.94184 5.088085,-0.90448 8.4557,0.10644 15.50165,4.59392 19.39365,12.35158 2.22683,4.43859 3.06371,8.09113 3.2914,14.36528 0.30416,8.38104 -1.16136,15.31412 -4.68687,22.1727 -4.8614,9.45747 -11.61641,14.27244 -19.856839,14.15397 -1.672538,-0.0241 -3.380184,-0.11952 -3.794768,-0.21217 z"
       id="path7614" />
  </g>
</svg>
