<?xml version="1.0" encoding="UTF-8" standalone="no"?>
<!-- Created with Inkscape (http://www.inkscape.org/) -->

<svg
   width="300.0px"
   height="300.0px"
   viewBox="0 0 300.0 300.0"
   version="1.1"
   id="SVGRoot"
   sodipodi:docname="bitvoker.svg"
   inkscape:version="1.2.2 (b0a8486541, 2022-12-01)"
   inkscape:export-filename="bitvoker.png"
   inkscape:export-xdpi="96"
   inkscape:export-ydpi="96"
   xmlns:inkscape="http://www.inkscape.org/namespaces/inkscape"
   xmlns:sodipodi="http://sodipodi.sourceforge.net/DTD/sodipodi-0.dtd"
   xmlns="http://www.w3.org/2000/svg"
   xmlns:svg="http://www.w3.org/2000/svg">
  <sodipodi:namedview
     id="namedview3555"
     pagecolor="#505050"
     bordercolor="#eeeeee"
     borderopacity="1"
     inkscape:showpageshadow="0"
     inkscape:pageopacity="0"
     inkscape:pagecheckerboard="0"
     inkscape:deskcolor="#505050"
     inkscape:document-units="px"
     showgrid="true"
     inkscape:zoom="2.6532575"
     inkscape:cx="87.251237"
     inkscape:cy="124.94076"
     inkscape:window-width="2560"
     inkscape:window-height="1371"
     inkscape:window-x="0"
     inkscape:window-y="0"
     inkscape:window-maximized="1"
     inkscape:current-layer="layer1">
    <inkscape:grid
       type="xygrid"
       id="grid4041" />
  </sodipodi:namedview>
  <defs
     id="defs3550" />
  <g
     inkscape:label="Layer 1"
     inkscape:groupmode="layer"
     id="layer1">
    <rect
       style="fill:#121926;stroke-width:1.09188;fill-opacity:1"
       id="rect4498"
       width="298.44504"
       height="298.44504"
       x="0.72876114"
       y="0.61392576"
       ry="55.683319"
       rx="55.683319" />
    <path
       style="fill:#b66efd;stroke-width:0.708616"
       d="m 170.80846,102.94312 c -9.39815,-1.86266 -16.2486,-12.46139 -14.21054,-21.984923 4.77113,-22.297693 37.01264,-19.08261 37.05912,3.695023 0.0244,12.18064 -10.63248,20.7117 -22.84858,18.2899 z"
       id="path27228" />
    <path
       style="fill:#3d9de3;stroke-width:0.727239"
       d="M 110.74426,104.16096 C 89.896689,96.6933 94.891559,66.072788 116.98568,65.900969 c 13.194,-0.103388 22.47694,12.350716 18.96034,25.436761 -2.7023,10.05881 -15.18585,16.41035 -25.20176,12.82323 z"
       id="path27230" />
    <path
       style="fill:#fd7900;stroke-width:0.690417"
       d="m 229.24518,103.57511 c -14.15532,-3.38343 -19.60872,-19.784456 -10.15711,-30.545676 11.43095,-13.015871 32.49491,-5.156963 32.49491,12.12356 0,12.054846 -11.00563,21.131046 -22.3378,18.422116 z"
       id="path27232" />
    <path
       style="fill:#ffffff;stroke-width:0.236569"
       d="m 77.537467,233.45493 c -3.51703,-0.44835 -8.366266,-0.97473 -10.776086,-1.16974 -2.409811,-0.195 -4.745784,-0.46088 -5.19105,-0.59082 -3.018873,-0.881 -4.292339,-3.53055 -5.002108,-10.40733 -0.476548,-4.61728 -0.629373,-21.95761 -0.520633,-59.07498 0.106142,-36.22939 -0.122861,-58.61648 -0.657449,-64.273591 -0.305134,-3.228918 -0.85236,-5.953803 -1.450737,-7.223924 -0.83181,-1.76558 -1.122455,-1.857509 -6.297827,-1.991764 l -4.554336,-0.118154 -0.656086,-0.656869 -0.656076,-0.656896 0.02192,-4.069111 c 0.0339,-6.303621 0.615371,-9.133293 2.012452,-9.794132 0.337338,-0.159559 2.948471,-0.659089 5.802517,-1.110047 2.854036,-0.450968 10.517994,-1.67134 17.031007,-2.711943 15.199189,-2.428417 15.529728,-2.471315 19.183805,-2.489203 2.683439,-0.01308 3.185349,0.04661 3.907819,0.465549 1.79918,1.043229 2.00056,2.585785 1.05362,8.070759 -0.77576,4.493485 -1.3587,9.720294 -2.1034,18.85939 -1.219677,14.968036 -1.970934,27.378426 -2.191738,36.206066 -0.135057,5.3989 -0.112397,5.97369 0.240728,6.10889 0.47979,0.18369 1.79202,-0.54294 7.54822,-4.17973 5.874331,-3.71144 8.213351,-5.03232 10.491291,-5.92458 1.65367,-0.64775 2.25772,-0.75583 4.74098,-0.8483 7.05551,-0.26274 15.70238,2.11867 21.84466,6.01616 10.8302,6.87214 17.73166,18.41531 20.10652,33.62963 0.65778,4.21389 0.59707,13.84319 -0.11604,18.40614 -3.45315,22.09563 -16.20921,39.17055 -34.77213,46.54502 -6.61389,2.6275 -12.80942,3.53358 -25.303271,3.70058 -7.260904,0.097 -7.412541,0.0892 -13.736556,-0.71707 z M 98.648269,212.7608 c 6.289591,-0.87282 11.434281,-4.41254 15.598351,-10.73221 7.60638,-11.54389 9.08235,-29.11886 3.39321,-40.40424 -3.08672,-6.12301 -7.62758,-9.88595 -13.97488,-11.58074 -10.438171,-2.7871 -14.873931,0.23697 -16.766098,11.43025 -0.90388,5.34699 -1.008217,7.68376 -1.122234,25.13437 -0.160388,24.54764 -0.188464,24.38691 4.444981,25.44711 3.98562,0.91198 5.82739,1.06616 8.42667,0.70546 z"
       id="path27429" />
    <path
       style="fill:#ffffff;stroke-width:0.236891"
       d="m 186.16271,235.02454 c -0.42237,-0.18505 -1.21346,-2.73647 -5.30001,-17.09376 -10.82484,-38.03081 -13.59881,-47.65298 -15.26538,-52.95161 -3.76483,-11.96976 -6.21401,-17.48776 -8.55088,-19.26521 -1.23598,-0.94009 -2.41451,-1.32283 -4.50041,-1.4615 -1.06955,-0.0711 -2.2307,-0.23686 -2.58035,-0.36831 -1.49434,-0.56182 -1.72722,-3.04628 -0.89415,-9.53947 0.68168,-5.31317 1.13197,-6.04064 4.02071,-6.49555 0.88692,-0.13967 6.17747,-0.24485 12.45417,-0.2476 11.48706,-0.005 23.15865,-0.29895 28.6704,-0.72201 1.8082,-0.13877 4.38069,-0.25683 5.71662,-0.26233 4.8129,-0.0198 4.97001,0.46095 3.32236,10.16665 -0.67209,3.95917 -1.18277,5.29284 -2.23425,5.83506 -0.40854,0.21068 -2.06792,0.63687 -3.68749,0.94709 -4.64798,0.89028 -5.33737,1.42069 -5.33737,4.10645 0,2.27253 1.11068,7.47791 5.25755,24.64008 4.37737,18.11618 7.23689,29.09684 7.57721,29.09684 0.64347,0 4.34365,-9.72585 9.92705,-26.0931 5.75337,-16.86545 8.35496,-25.53079 8.34098,-27.78252 -0.0175,-2.87316 -0.54255,-3.13309 -6.78751,-3.36134 -5.03635,-0.18409 -5.74654,-0.37696 -6.31228,-1.71438 -0.54469,-1.28763 -0.11248,-7.44926 0.74539,-10.62621 0.5845,-2.16459 2.04326,-2.99923 6.15995,-3.5244 2.67472,-0.34124 31.50048,-0.71327 35.58328,-0.45926 5.04348,0.31378 6.16783,0.89317 6.16783,3.17829 0,1.24115 -1.39762,9.45483 -1.80445,10.60473 -0.51403,1.45288 -1.09352,1.92741 -3.68558,3.01814 -3.2105,1.35095 -3.81892,2.08607 -6.44841,7.79184 -2.30846,5.00902 -7.86881,19.67858 -18.42648,48.61337 -8.69695,23.83533 -10.02051,26.99947 -12.36284,29.5552 -1.53294,1.67261 -2.92576,2.25152 -6.12845,2.54723 -1.37632,0.12708 -5.93501,0.59291 -10.13042,1.03514 -8.49435,0.89542 -12.76265,1.15849 -13.50679,0.83245 z"
       id="path27431" />
  </g>
</svg>
